<svg width="24" height="24" viewBox="0 0 24 24" fill="none" xmlns="http://www.w3.org/2000/svg">
<path d="M16.7984 2.39844H7.19844C4.55868 2.39844 2.39844 4.55772 2.39844 7.19844V16.7984C2.39844 19.4382 4.55868 21.5984 7.19844 21.5984H16.7984C19.4382 21.5984 21.5984 19.4382 21.5984 16.7984V7.19844C21.5984 4.55772 19.4382 2.39844 16.7984 2.39844ZM11.9984 15.9983C9.789 15.9983 7.99836 14.2069 7.99836 11.9984C7.99836 9.789 9.789 7.99836 11.9984 7.99836C14.2069 7.99836 15.9985 9.789 15.9985 11.9984C15.9985 14.2069 14.2069 15.9983 11.9984 15.9983ZM17.1985 7.99836C16.5352 7.99836 15.9985 7.461 15.9985 6.79836C15.9985 6.13572 16.5352 5.59836 17.1985 5.59836C17.8619 5.59836 18.3985 6.13572 18.3985 6.79836C18.3985 7.461 17.8619 7.99836 17.1985 7.99836Z" fill="white"/>
</svg>
