<svg width="18" height="18" viewBox="0 0 18 18" fill="none" xmlns="http://www.w3.org/2000/svg">
<path d="M16.0001 0H1.2756C0.57144 0 0 0.558 0 1.24512V16.0332C0 16.7213 0.57144 17.28 1.2756 17.28H16.0001C16.7047 17.28 17.28 16.7213 17.28 16.0332V1.24512C17.28 0.558 16.7047 0 16.0001 0ZM5.12496 14.725H2.5608V6.4788H5.12496V14.725ZM3.84288 5.35128C3.64771 5.35128 3.45445 5.31282 3.27414 5.23811C3.09384 5.16339 2.93003 5.05387 2.79206 4.91582C2.6541 4.77777 2.54469 4.61388 2.47009 4.43353C2.39549 4.25318 2.35715 4.05989 2.35728 3.86472C2.35728 3.47075 2.51379 3.09291 2.79237 2.81433C3.07095 2.53575 3.44879 2.37924 3.84276 2.37924C4.23673 2.37924 4.61457 2.53575 4.89315 2.81433C5.17174 3.09291 5.32824 3.47075 5.32824 3.86472C5.32824 4.25877 5.17179 4.6367 4.89326 4.91545C4.61474 5.1942 4.23693 5.35096 3.84288 5.35128ZM14.724 14.725H12.1639V10.715C12.1639 9.7584 12.1452 8.5284 10.8317 8.5284C9.49776 8.5284 9.29448 9.57024 9.29448 10.6457V14.7252H6.73248V6.4788H9.19128V7.60488H9.22632C9.56856 6.95688 10.4047 6.27312 11.6518 6.27312C14.2452 6.27312 14.7242 7.98048 14.7242 10.2017L14.724 14.725Z" fill="white"/>
</svg>
