<svg width="30" height="30" viewBox="0 0 30 30" fill="none" xmlns="http://www.w3.org/2000/svg">
<path d="M23.7528 18.4641V9.71406L16.8778 4.90531L10.0028 9.71281V13.0778H8.75281V9.11406L16.8778 3.32031L25.0028 9.11281V18.4628L23.7528 18.4641ZM17.6228 10.5541H18.6328V9.54406H17.6228V10.5541ZM15.1228 10.5541H16.1328V9.54406H15.1228V10.5541ZM17.6228 13.0541H18.6328V12.0441H17.6228V13.0541ZM15.1228 13.0541H16.1328V12.0441H15.1228V13.0541ZM8.00781 23.3191L17.4641 26.0778L24.9503 23.7653C24.9253 23.3861 24.812 23.1128 24.6103 22.9453C24.407 22.7778 24.1774 22.6941 23.9216 22.6941H17.9903C17.462 22.6941 16.9828 22.6732 16.5528 22.6316C16.1228 22.5899 15.6832 22.4907 15.2341 22.3341L12.4966 21.4366L12.9191 20.2016L15.4503 21.1166C15.852 21.2691 16.3086 21.3607 16.8203 21.3916C17.3311 21.4216 18.0311 21.4391 18.9203 21.4441C18.9203 21.0541 18.8486 20.7391 18.7053 20.4991C18.562 20.2591 18.3566 20.0916 18.0891 19.9966L10.8966 17.3566C10.8491 17.3407 10.8049 17.3291 10.7641 17.3216C10.7232 17.3141 10.6795 17.3099 10.6328 17.3091H8.00781V23.3191ZM3.00781 26.2516V16.0591H10.6028C10.7195 16.0591 10.8395 16.0724 10.9628 16.0991C11.0861 16.1257 11.2007 16.1566 11.3066 16.1916L18.5303 18.8378C18.9778 19.0078 19.3628 19.3132 19.6853 19.7541C20.0086 20.1949 20.1703 20.7582 20.1703 21.4441H23.9203C24.6736 21.4441 25.2503 21.6795 25.6503 22.1503C26.0511 22.622 26.2516 23.2199 26.2516 23.9441V24.7128L17.5266 27.4053L8.00656 24.6303V26.2516H3.00781ZM4.25781 25.0016H6.75781V17.3091H4.25781V25.0016Z" fill="#DDA74F"/>
</svg>
