<svg width="40" height="37" viewBox="0 0 40 37" fill="none" xmlns="http://www.w3.org/2000/svg">
<path d="M39.6313 17.0742L35.5556 13.3287V3.46875C35.5556 3.16209 35.4385 2.868 35.2301 2.65116C35.0217 2.43432 34.7391 2.3125 34.4444 2.3125H30C29.7053 2.3125 29.4227 2.43432 29.2143 2.65116C29.006 2.868 28.8889 3.16209 28.8889 3.46875V7.20271L21.8597 0.744336C21.4236 0.333145 20.5924 0 20 0C19.4076 0 18.5792 0.333145 18.1431 0.744336L0.365278 17.0764C0.146238 17.3067 0.0162279 17.6127 0 17.9363C0.0141923 18.219 0.11357 18.4898 0.284028 18.7103L1.77083 20.4295C2.00255 20.6459 2.29439 20.78 2.60417 20.8125C2.87274 20.7846 3.12915 20.682 3.34653 20.5155L4.45069 19.5038V34.6875C4.45069 35.3008 4.68482 35.889 5.10157 36.3227C5.51832 36.7564 6.08355 37 6.67292 37H33.3333C33.9227 37 34.4879 36.7564 34.9047 36.3227C35.3214 35.889 35.5556 35.3008 35.5556 34.6875V19.503L36.6604 20.5148C36.8788 20.681 37.1357 20.7838 37.4049 20.8125C37.7119 20.7791 38.0006 20.6446 38.2292 20.4288L39.716 18.7081C39.8756 18.4818 39.9737 18.215 40 17.9356C39.9681 17.615 39.839 17.3133 39.6313 17.0742ZM20 12.7188C20.879 12.7188 21.7383 12.99 22.4692 13.4982C23.2001 14.0064 23.7697 14.7287 24.1061 15.5738C24.4425 16.4189 24.5305 17.3489 24.359 18.246C24.1876 19.1432 23.7643 19.9673 23.1427 20.6141C22.5211 21.2609 21.7292 21.7014 20.8671 21.8799C20.0049 22.0583 19.1113 21.9667 18.2992 21.6167C17.4871 21.2666 16.7929 20.6738 16.3046 19.9133C15.8162 19.1527 15.5556 18.2585 15.5556 17.3438C15.5556 16.1171 16.0238 14.9407 16.8573 14.0734C17.6908 13.206 18.8213 12.7188 20 12.7188ZM27.7778 32.375H12.2222C11.9275 32.375 11.6449 32.2532 11.4365 32.0363C11.2282 31.8195 11.1111 31.5254 11.1111 31.2188C11.1111 29.3788 11.8135 27.6142 13.0637 26.3132C14.314 25.0122 16.0097 24.2812 17.7778 24.2812H22.2222C23.9903 24.2812 25.686 25.0122 26.9363 26.3132C28.1865 27.6142 28.8889 29.3788 28.8889 31.2188C28.8889 31.5254 28.7718 31.8195 28.5635 32.0363C28.3551 32.2532 28.0725 32.375 27.7778 32.375Z" fill="url(#paint0_linear_4367_21427)"/>
<defs>
<linearGradient id="paint0_linear_4367_21427" x1="20" y1="0" x2="20" y2="37" gradientUnits="userSpaceOnUse">
<stop stop-color="#D0AA63"/>
<stop offset="0.45" stop-color="#F0E0A0"/>
<stop offset="1" stop-color="#D0AA63"/>
</linearGradient>
</defs>
</svg>
